# xmcd
#
# Track frame offsets:
#	150
#	26764
#	39288
#	55583
#	68134
#	85258
#	103858
#	123770
#	144473
#	167805
#	188377
#	203272
#	217298
#	231697
#	248872
#	265447
#	286458
#	307898
#
# Disc length: 4459 seconds
#
# Revision: 1
# Processed by: cddbd v1.5.2PL0 Copyright (c) Steve Scherf et al.
# Submitted via: audiograbber 1.83.01
#
DISCID=02116912
DTITLE=Basement App - Swamp
DYEAR=2011
DGENRE=Blues Rock
TTITLE0=What Kind of Life
TTITLE1=Roll on
TTITLE2=Upstairs
TTITLE3=Make my Day
TTITLE4=Rounddance
TTITLE5=Lullaby
TTITLE6=Prayer
TTITLE7=Once upon a Time
TTITLE8=World before Columbus
TTITLE9=All as it should be
TTITLE10=Back to my Senses
TTITLE11=Wake me up
TTITLE12=Swamp
TTITLE13=Don't Forget to say Goodbye
TTITLE14=A Turnaround
TTITLE15=Tart
TTITLE16=It really doesn't matter
TTITLE17=See You
EXTD=
EXTT0=
EXTT1=
EXTT2=
EXTT3=
EXTT4=
EXTT5=
EXTT6=
EXTT7=
EXTT8=
EXTT9=
EXTT10=
EXTT11=
EXTT12=
EXTT13=
EXTT14=
EXTT15=
EXTT16=
EXTT17=
PLAYORDER=
